<?xml version="1.0" encoding="UTF-8"?>
<svg version="1.1" xmlns="http://www.w3.org/2000/svg" width="240" height="327">
<path d="M0 0 C3 1 3 1 4.28125 3.01171875 C11.12991688 18.04805468 12.31465992 34.73225485 14.45043945 50.94482422 C14.82810749 53.79720552 15.21267978 56.64859741 15.59765625 59.5 C15.70916519 60.36568604 15.82067413 61.23137207 15.93556213 62.12329102 C16.54486085 66.62714436 17.3782957 70.72290138 19 75 C21.31 73.02 23.62 71.04 26 69 C29.76731343 73.81722045 29.7302178 78.87994752 30.125 84.75 C30.20500244 85.7711792 30.28500488 86.7923584 30.36743164 87.84448242 C30.78262297 93.2871085 31.09434413 98.72856164 31.33862305 104.18115234 C31.6615077 111.1411104 32.31627205 117.49996167 35 124 C35.474375 125.19625 35.94875 126.3925 36.4375 127.625 C38.4646935 130.92517148 41.16490666 132.60611566 44.390625 134.6875 C45.46626709 135.38955566 46.54190918 136.09161133 47.65014648 136.81494141 C48.75559814 137.53601074 49.8610498 138.25708008 51 139 C53.04145351 140.37735453 55.07927757 141.76010506 57.11328125 143.1484375 C58.12720947 143.83728027 59.1411377 144.52612305 60.18579102 145.23583984 C62.3281054 146.70151944 64.46235671 148.1790345 66.58959961 149.66650391 C71.25969698 152.91008232 75.75845871 156.03459341 80.953125 158.375 C88.91227048 162.12197092 88.91227048 162.12197092 91 166 C92.7494115 174.88075239 91.91757342 184.05765882 91 193 C84.44858727 195.28625572 77.84429724 197.17830751 71.12890625 198.91796875 C70.12536606 199.18007645 69.12182587 199.44218414 68.08787537 199.7122345 C65.98483185 200.26072762 63.88139639 200.80771991 61.77758789 201.35327148 C58.54658665 202.19162908 55.3171751 203.03591588 52.08789062 203.88085938 C50.03915391 204.41441363 47.99032891 204.94762901 45.94140625 205.48046875 C44.97376846 205.73354294 44.00613068 205.98661713 43.00917053 206.24736023 C42.11741623 206.47792618 41.22566193 206.70849213 40.30688477 206.94604492 C39.52128677 207.15017502 38.73568878 207.35430511 37.92628479 207.56462097 C36 208 36 208 34 208 C36.03724245 216.0034525 40.46887812 220.12419383 47 225 C48.30882101 225.76128366 49.62853209 226.50406995 50.95703125 227.23046875 C61.22900593 232.97897149 61.22900593 232.97897149 62.76464844 237.00439453 C63.65560509 241.69921201 63.46406164 246.26539647 63 251 C52.18271497 254.19831226 41.3483854 257.25459059 30.375 259.875 C29.48143799 260.08987061 28.58787598 260.30474121 27.66723633 260.52612305 C21.3863654 262 21.3863654 262 18 262 C15.60023269 254.70462647 14.05050418 247.44753917 12.8125 239.875 C12.63525391 238.823125 12.45800781 237.77125 12.27539062 236.6875 C11.84457481 234.12589246 11.41955298 231.56347191 11 229 C10.57871826 229.48895752 10.15743652 229.97791504 9.72338867 230.48168945 C6.9693087 232.90804211 3.79115414 232.31417368 0.3125 232.1875 C-0.38939453 232.17396484 -1.09128906 232.16042969 -1.81445312 232.14648438 C-3.54329829 232.11120182 -5.27174765 232.05739583 -7 232 C-7.33 231.01 -7.66 230.02 -8 229 C-8.66 229 -9.32 229 -10 229 C-10.04825928 229.58700684 -10.09651855 230.17401367 -10.14624023 230.77880859 C-10.74993989 237.47653184 -11.81467514 244.01990584 -13.0625 250.625 C-13.24876953 251.62917969 -13.43503906 252.63335937 -13.62695312 253.66796875 C-14.08097233 256.11268755 -14.53870544 258.55664548 -15 261 C-18.09049506 261.97940634 -20.08487565 261.97878109 -23.21777344 261.19555664 C-24.03832214 260.99527359 -24.85887085 260.79499054 -25.70428467 260.58863831 C-27.01855438 260.25278969 -27.01855438 260.25278969 -28.359375 259.91015625 C-29.26375305 259.68678085 -30.1681311 259.46340546 -31.09991455 259.23326111 C-33.98552934 258.5184016 -36.86770954 257.79063485 -39.75 257.0625 C-41.70681881 256.57531781 -43.66384791 256.0889794 -45.62109375 255.60351562 C-50.4165567 254.412118 -55.20898006 253.20913508 -60 252 C-60.13198329 249.26144072 -60.22839216 246.52926701 -60.3046875 243.7890625 C-60.36595825 242.63096069 -60.36595825 242.63096069 -60.4284668 241.44946289 C-60.51597666 237.26020871 -60.48547182 235.5894044 -57.73291016 232.24755859 C-54.92356567 230.23036404 -52.06085377 228.60772117 -49 227 C-37.79283917 219.71994458 -37.79283917 219.71994458 -32 208 C-33.2890625 207.76152344 -34.578125 207.52304688 -35.90625 207.27734375 C-43.0577504 205.8457846 -50.10068404 203.99726572 -57.15869141 202.16870117 C-59.49421853 201.56399691 -61.83099336 200.96431421 -64.16796875 200.36523438 C-86.33706635 194.66293365 -86.33706635 194.66293365 -89 192 C-91.13037023 183.73005677 -91.78575618 174.13372021 -89 166 C-83.54903846 159.29208158 -75.50417234 155.49867517 -67.95263672 151.58105469 C-64.18767817 149.5650243 -60.82851776 147.20604023 -57.4375 144.625 C-54.02886456 142.12282766 -50.62120101 139.73734969 -47 137.55859375 C-39.83587888 133.19823319 -34.72424445 129.93608575 -31.6640625 121.73828125 C-30.2371804 115.85449093 -29.81899621 109.93680855 -29.5703125 103.90625 C-29.49669167 102.36585672 -29.42245417 100.82549282 -29.34765625 99.28515625 C-29.2342249 96.88934855 -29.12473698 94.49362409 -29.02587891 92.09716797 C-28.92776092 89.76195998 -28.81282963 87.42805193 -28.6953125 85.09375 C-28.67018585 84.3862561 -28.6450592 83.67876221 -28.61917114 82.9498291 C-28.34984622 77.96186921 -27.15086134 74.42141526 -25 70 C-22 70 -22 70 -19.3125 72.5 C-18.549375 73.325 -17.78625 74.15 -17 75 C-15.09181256 66.99487988 -13.63906668 59.01670186 -12.53515625 50.8671875 C-12.41401459 49.97590149 -12.29287292 49.08461548 -12.1680603 48.1663208 C-11.67034628 44.47215475 -11.17939521 40.77721349 -10.70043945 37.08056641 C-8.98388424 23.91915388 -7.26616293 11.41825604 0 0 Z " fill="#070707" transform="translate(118,21)"/>
<path d="M0 0 C0.33 0 0.66 0 1 0 C1.23268915 6.28260706 0.40454548 11.88019467 -1 18 C-0.34 18.33 0.32 18.66 1 19 C-0.32 19.33 -1.64 19.66 -3 20 C-2.68839539 17.79154015 -2.37567654 15.58323749 -2.0625 13.375 C-1.88847656 12.14523438 -1.71445313 10.91546875 -1.53515625 9.6484375 C-1.06225699 6.42443816 -0.54848998 3.21187824 0 0 Z " fill="#9D9D9D" transform="translate(105,76)"/>
</svg>
