<?xml version="1.0" encoding="UTF-8"?>
<svg version="1.1" xmlns="http://www.w3.org/2000/svg" width="263" height="166">
<path d="M0 0 C3.68356976 2.10626895 7.07502182 4.56288516 10.5 7.0625 C12.55833599 8.53030945 14.61693725 9.99774696 16.67578125 11.46484375 C17.72459473 12.21878418 18.7734082 12.97272461 19.85400391 13.74951172 C24.76213434 17.26054279 29.72603558 20.68997797 34.6875 24.125 C42.61614746 29.63613223 50.53162358 35.16583842 58.43774414 40.70922852 C62.85979089 43.80803953 67.28857324 46.89671163 71.7265625 49.97265625 C98.44009754 68.4908232 98.44009754 68.4908232 111 78 C109.48109114 81.938566 107.13374291 83.69351261 103.75 86.125 C102.81671875 86.80820313 101.8834375 87.49140625 100.921875 88.1953125 C95.48784658 91.55162417 95.48784658 91.55162417 92 92 C88.89835527 90.56038079 86.35455382 88.4946166 83.6875 86.375 C82.09425794 85.17120245 80.50049436 83.96809485 78.90625 82.765625 C78.09671875 82.14365234 77.2871875 81.52167969 76.453125 80.88085938 C72.57193145 77.90507165 68.64402905 74.99955365 64.6875 72.125 C63.98906982 71.59567871 63.29063965 71.06635742 62.57104492 70.52099609 C61.91209229 70.04227051 61.25313965 69.56354492 60.57421875 69.0703125 C60.00276123 68.64508301 59.43130371 68.21985352 58.8425293 67.78173828 C56.19329365 66.65773503 54.71175173 67.13041747 52 68 C49.69674961 69.33025873 49.69674961 69.33025873 47.49609375 71.0546875 C46.26149414 71.97701172 46.26149414 71.97701172 45.00195312 72.91796875 C44.15568359 73.56378906 43.30941406 74.20960937 42.4375 74.875 C41.58736328 75.51308594 40.73722656 76.15117188 39.86132812 76.80859375 C35.32877558 80.21205944 35.32877558 80.21205944 30.86743164 83.70751953 C29 85 29 85 26.75 85 C23.46734981 83.80630902 20.9541013 82.03775086 18.16015625 79.9609375 C15.00093455 78.55556944 13.30227382 79.0299318 10 80 C6.84730603 81.73698956 3.96184073 83.84967413 1.03515625 85.9375 C-3.41520183 88.98197154 -3.41520183 88.98197154 -6.02734375 89.0625 C-9.65410045 87.10907857 -12.88396979 84.57634902 -16.13476562 82.0625 C-18.73795225 80.154914 -20.37589718 78.98533679 -23.66015625 79.0625 C-26.78073651 80.31281596 -29.23577615 82.06723985 -31.9375 84.0390625 C-34.8031723 85.37420527 -36.02979839 85.05763855 -39 84 C-41.14532907 82.51477218 -43.1193133 81.02667091 -45.125 79.375 C-46.27101528 78.46828425 -47.41949441 77.56467463 -48.5703125 76.6640625 C-49.14297852 76.21579102 -49.71564453 75.76751953 -50.30566406 75.30566406 C-52.81746597 73.37005649 -55.37811506 71.53345019 -58 69.75 C-59.2684375 68.87601563 -59.2684375 68.87601563 -60.5625 67.984375 C-62.95773809 66.74632745 -62.95773809 66.74632745 -65.42578125 67.55859375 C-68.50326634 69.2817986 -71.35181455 71.22521181 -74.1875 73.3125 C-74.78046875 73.73821289 -75.3734375 74.16392578 -75.984375 74.60253906 C-79.60875778 77.21291331 -83.17037709 79.89310597 -86.70703125 82.62109375 C-87.90066284 83.52444458 -87.90066284 83.52444458 -89.1184082 84.44604492 C-90.68607253 85.63348436 -92.24113121 86.83778278 -93.78198242 88.05981445 C-99.16482725 92.10491086 -99.16482725 92.10491086 -103.171875 91.6015625 C-106.16532255 89.90637811 -108.97282714 88.15801328 -111.75 86.125 C-112.69359375 85.44695312 -113.6371875 84.76890625 -114.609375 84.0703125 C-116.93841854 82.05333035 -117.75692733 80.73376085 -119 78 C-106.97834386 69.04341362 -94.82779392 60.30302644 -82.51611328 51.75 C-78.33704063 48.8433832 -74.16907956 45.92092291 -70 43 C-68.33338686 41.83325686 -66.66672019 40.66659021 -65 39.5 C-64.175 38.9225 -63.35 38.345 -62.5 37.75 C-60 36 -57.5 34.25 -55 32.5 C-53.76165405 31.63314575 -53.76165405 31.63314575 -52.49829102 30.7487793 C-50.83735157 29.58613792 -49.17638169 28.42354002 -47.51538086 27.26098633 C-42.38948413 23.67321071 -37.26432106 20.08439465 -32.14135742 16.49243164 C-30.44156168 15.30275163 -28.73994032 14.11567515 -27.03637695 12.93139648 C-23.35040421 10.36697009 -19.68840349 7.78773808 -16.1015625 5.0859375 C-15.51689209 4.65450439 -14.93222168 4.22307129 -14.32983398 3.77856445 C-12.81778079 2.65896627 -11.32025785 1.51981465 -9.82421875 0.37890625 C-5.86993051 -1.551749 -4.22439745 -1.29380313 0 0 Z " fill="#0C0C0C" transform="translate(136,36)"/>
<path d="M0 0 C0.33 0 0.66 0 1 0 C1 13.86 1 27.72 1 42 C-0.32 41.67 -1.64 41.34 -3 41 C-2.01 41 -1.02 41 0 41 C0 27.47 0 13.94 0 0 Z " fill="#000000" transform="translate(262,124)"/>
<path d="M0 0 C1.32 0 2.64 0 4 0 C4 12.54 4 25.08 4 38 C3.67 38 3.34 38 3 38 C3 25.79 3 13.58 3 1 C2.34 1 1.68 1 1 1 C0.67 1.66 0.34 2.32 0 3 C0 2.01 0 1.02 0 0 Z " fill="#000000" transform="translate(259,0)"/>
<path d="M0 0 C0.66 0.33 1.32 0.66 2 1 C0.90716423 2.03295436 -0.19970579 3.05107835 -1.3125 4.0625 C-1.92738281 4.63097656 -2.54226562 5.19945312 -3.17578125 5.78515625 C-3.77777344 6.18605469 -4.37976563 6.58695313 -5 7 C-5.99 6.67 -6.98 6.34 -8 6 C-5.36 4.02 -2.72 2.04 0 0 Z " fill="#787878" transform="translate(107,50)"/>
<path d="" fill="#000000" transform="translate(0,0)"/>
<path d="" fill="#000000" transform="translate(0,0)"/>
</svg>
