<?xml version="1.0" encoding="UTF-8"?>
<svg version="1.1" xmlns="http://www.w3.org/2000/svg" width="204" height="107">
<path d="M0 0 C7.70012053 5.22068172 12.87975384 10.9926929 16.265625 19.69921875 C18.21034215 29.95318189 16.74051719 39.09866838 11.328125 48.07421875 C7.09776545 54.03470041 0.90907036 58.14311724 -6.046875 60.32421875 C-16.09945339 61.55668453 -25.56337171 61.2992529 -34.046875 55.32421875 C-34.954375 54.76734375 -35.861875 54.21046875 -36.796875 53.63671875 C-43.26862095 46.98520208 -47.04312758 38.85685128 -47.421875 29.63671875 C-47.1806489 19.36556527 -43.76982698 11.82789382 -36.578125 4.49609375 C-26.886727 -3.81936503 -11.53941328 -6.2762076 0 0 Z " fill="#1F1D1E" transform="translate(116.046875,27.67578125)"/>
<path d="M0 0 C0.66 0 1.32 0 2 0 C2.50512244 1.60256108 3.00391627 3.20711792 3.5 4.8125 C3.7784375 5.70582031 4.056875 6.59914063 4.34375 7.51953125 C5 10 5 10 5 13 C9.95 13 14.9 13 20 13 C16.72724974 16.27275026 13.85411644 18.54738045 10 21 C10.144375 22.010625 10.28875 23.02125 10.4375 24.0625 C10.95833333 27.70833333 11.47916667 31.35416667 12 35 C11.11248047 34.33291016 11.11248047 34.33291016 10.20703125 33.65234375 C9.41683594 33.08644531 8.62664062 32.52054688 7.8125 31.9375 C7.03519531 31.36902344 6.25789063 30.80054687 5.45703125 30.21484375 C3.07706413 28.78451561 3.07706413 28.78451561 0.46875 29.15625 C-2.07911686 30.02703994 -4.0696418 31.07993272 -6.3125 32.5625 C-7.35857422 33.24505859 -7.35857422 33.24505859 -8.42578125 33.94140625 C-8.94527344 34.29074219 -9.46476562 34.64007813 -10 35 C-9.33333333 30.33333333 -8.66666667 25.66666667 -8 21 C-8.721875 20.50628906 -9.44375 20.01257813 -10.1875 19.50390625 C-11.5796875 18.54291016 -11.5796875 18.54291016 -13 17.5625 C-13.928125 16.92441406 -14.85625 16.28632812 -15.8125 15.62890625 C-16.8953125 14.82259766 -16.8953125 14.82259766 -18 14 C-18 13.67 -18 13.34 -18 13 C-13.05 13 -8.1 13 -3 13 C-2.690625 11.5975 -2.38125 10.195 -2.0625 8.75 C-1.41650906 5.82150775 -0.73989213 2.90624297 0 0 Z " fill="#F0EFEF" transform="translate(100,39)"/>
<path d="M0 0 C19.14 0 38.28 0 58 0 C57 4 57 4 55.1472168 5.71142578 C50.37820184 7.66401758 45.75410511 7.54113609 40.64453125 7.6171875 C39.54654709 7.64225372 38.44856293 7.66731995 37.31730652 7.69314575 C35.00179814 7.74203849 32.68612515 7.78361085 30.37036133 7.81835938 C26.81443719 7.87496916 23.26025965 7.96330855 19.70507812 8.0546875 C17.4557653 8.09826126 15.20641585 8.13999181 12.95703125 8.1796875 C11.88935013 8.20763397 10.82166901 8.23558044 9.72163391 8.26437378 C8.73688583 8.27493805 7.75213776 8.28550232 6.73754883 8.29638672 C5.43446526 8.31945389 5.43446526 8.31945389 4.10505676 8.34298706 C3.06305367 8.17320847 3.06305367 8.17320847 2 8 C0 5 0 5 0 0 Z " fill="#212020" transform="translate(134,43)"/>
<path d="M0 0 C19.14 0 38.28 0 58 0 C57 7 57 7 56 8 C54.46053617 8.0794846 52.91736945 8.08869202 51.37597656 8.06933594 C50.39115295 8.05892273 49.40632935 8.04850952 48.3916626 8.03778076 C47.31882019 8.02015686 46.24597778 8.00253296 45.140625 7.984375 C44.04409607 7.96787903 42.94756714 7.95138306 41.81781006 7.93438721 C39.49079641 7.89680204 37.16382919 7.85624545 34.83691406 7.81298828 C31.27935202 7.75051544 27.72192842 7.70892615 24.1640625 7.66796875 C21.90622722 7.62889892 19.64841323 7.58857492 17.390625 7.546875 C16.32587952 7.53734802 15.26113403 7.52782104 14.16412354 7.51800537 C4.55511349 7.29621869 4.55511349 7.29621869 1 4 C0.67 2.68 0.34 1.36 0 0 Z " fill="#212020" transform="translate(10,43)"/>
<path d="M0 0 C15.51 0 31.02 0 47 0 C45 5 45 5 42 7 C40.04475403 7.24050903 40.04475403 7.24050903 37.80395508 7.22705078 C36.96331009 7.22689972 36.1226651 7.22674866 35.25654602 7.22659302 C34.35333115 7.21627045 33.45011627 7.20594788 32.51953125 7.1953125 C31.12754768 7.19106766 31.12754768 7.19106766 29.70744324 7.18673706 C26.74233121 7.17553836 23.77752079 7.15043435 20.8125 7.125 C18.80273874 7.1149698 16.79297274 7.10584402 14.78320312 7.09765625 C9.85535247 7.07560004 4.92772738 7.04107229 0 7 C0 4.69 0 2.38 0 0 Z " fill="#1A191A" transform="translate(136,53)"/>
<path d="M0 0 C15.51 0 31.02 0 47 0 C47 2.31 47 4.62 47 7 C41.11018515 7.12375961 35.22112988 7.21441514 29.33032227 7.2746582 C27.32725844 7.2997755 25.32428602 7.33387595 23.3215332 7.37719727 C20.43938634 7.43797188 17.55845279 7.46623732 14.67578125 7.48828125 C13.33644279 7.52699089 13.33644279 7.52699089 11.970047 7.56648254 C7.43141321 7.56852187 5.59680705 7.46239992 1.89526367 4.59448242 C0 2 0 2 0 0 Z " fill="#1A1919" transform="translate(19,53)"/>
<path d="M0 0 C12.21 0 24.42 0 37 0 C36 4 36 4 33.91918945 5.73168945 C30.3089752 7.30023199 27.1531974 7.37884346 23.29296875 7.29296875 C22.20487663 7.28660149 22.20487663 7.28660149 21.09480286 7.28010559 C18.79198109 7.26339543 16.49005447 7.2257596 14.1875 7.1875 C12.6204554 7.17244316 11.053397 7.1587565 9.48632812 7.14648438 C5.65721043 7.11351731 1.82875666 7.06178992 -2 7 C-1.34 4.69 -0.68 2.38 0 0 Z " fill="#1E1C1D" transform="translate(135,64)"/>
<path d="M0 0 C12.21 0 24.42 0 37 0 C37.66 2.31 38.32 4.62 39 7 C34.3918813 7.07436755 29.78411486 7.12870394 25.17553711 7.16479492 C23.60906893 7.17984622 22.04264264 7.20029207 20.47631836 7.22631836 C18.21978394 7.26286433 15.96380847 7.27976261 13.70703125 7.29296875 C13.01100296 7.30845261 12.31497467 7.32393646 11.59785461 7.33988953 C7.2395544 7.34138513 4.38445593 6.81660753 1 4 C0.67 2.68 0.34 1.36 0 0 Z " fill="#1E1C1D" transform="translate(30,64)"/>
</svg>
