<?xml version="1.0" encoding="UTF-8"?>
<svg version="1.1" xmlns="http://www.w3.org/2000/svg" width="320" height="342">
<path d="M0 0 C6.77721762 5.22813931 9.23902101 13.52107819 10.62817383 21.69726562 C12.03146434 33.9381257 12.63111281 46.15893294 13.10449219 58.46679688 C13.20803158 61.09802728 13.32225107 63.72863543 13.4375 66.359375 C13.46465088 67.15518982 13.49180176 67.95100464 13.51977539 68.77093506 C13.74389059 73.76856907 14.17361014 77.86841706 17.49609375 81.74609375 C33.45141032 97.17576547 33.45141032 97.17576547 52 106 C52.07347656 104.51886719 52.07347656 104.51886719 52.1484375 103.0078125 C52.22320312 101.72648437 52.29796875 100.44515625 52.375 99.125 C52.44460937 97.84882812 52.51421875 96.57265625 52.5859375 95.2578125 C53 92 53 92 55 90 C62.30434783 89.53623188 62.30434783 89.53623188 66 92 C67.1397887 100.3137529 66.0103233 108.22333147 63 116 C68.70706151 121.52350106 74.8838286 126.23092572 81.3125 130.875 C82.10124512 131.44629639 82.88999023 132.01759277 83.70263672 132.60620117 C87.05623791 135.00659442 90.26311181 137.23195381 94 139 C93.835 138.21625 93.67 137.4325 93.5 136.625 C93.08602618 133.62368983 92.83759628 130.77207158 92.75 127.75 C92.71132813 126.47382813 92.71132813 126.47382813 92.671875 125.171875 C92.83429688 124.09679687 92.83429688 124.09679687 93 123 C96.28262031 120.81158646 97.31790898 120.75145335 101.125 120.8125 C102.01445312 120.81894531 102.90390625 120.82539063 103.8203125 120.83203125 C106 121 106 121 107 122 C107.66742341 128.95660556 106.74626356 134.9879424 104.55859375 141.58984375 C103.92138388 144.33920382 103.80125021 145.44636075 105 148 C107.41155396 150.4085467 107.41155396 150.4085467 110.4375 152.75 C110.97810059 153.18683105 111.51870117 153.62366211 112.07568359 154.07373047 C113.71019557 155.39142074 115.35437852 156.69622747 117 158 C118.32064453 159.06347656 118.32064453 159.06347656 119.66796875 160.1484375 C123.00133102 162.82996581 126.34205102 165.49597917 129.73828125 168.09765625 C130.62902344 168.78730469 131.51976562 169.47695312 132.4375 170.1875 C133.64212891 171.10595703 133.64212891 171.10595703 134.87109375 172.04296875 C137.97819315 174.89921976 139.80138759 177.40164296 140.328125 181.640625 C140.30234375 182.50171875 140.2765625 183.3628125 140.25 184.25 C140.23453125 185.12140625 140.2190625 185.9928125 140.203125 186.890625 C140 189 140 189 139 190 C131.65807316 189.70563029 125.66731485 187.04955723 119 184.125 C117.27269653 183.37972046 117.27269653 183.37972046 115.51049805 182.61938477 C102.41849004 176.93903112 89.4732149 170.94523361 76.53662109 164.921875 C52.33765166 153.60444773 52.33765166 153.60444773 27.875 142.875 C26.92302734 142.46757568 25.97105469 142.06015137 24.99023438 141.64038086 C24.12462891 141.28210205 23.25902344 140.92382324 22.3671875 140.5546875 C21.63612793 140.25030762 20.90506836 139.94592773 20.15185547 139.63232422 C17.68518681 138.90749193 15.55765467 138.88840752 13 139 C13.01047363 139.83394287 13.02094727 140.66788574 13.03173828 141.52709961 C13.26651136 163.59131171 12.70755065 185.56436947 11.71142578 207.60717773 C11.665513 208.62857849 11.61960022 209.64997925 11.57229614 210.70233154 C11.48552313 212.61141645 11.39656555 214.52040396 11.30490112 216.42926025 C11.18817309 218.95252387 11.08993168 221.47565209 11 224 C10.96263229 224.83971344 10.92526459 225.67942688 10.88676453 226.54458618 C10.86443253 227.34625214 10.84210052 228.14791809 10.8190918 228.97387695 C10.78225533 230.0391436 10.78225533 230.0391436 10.74467468 231.12593079 C10.87294272 233.37392794 10.87294272 233.37392794 13.45703125 235.75 C14.5556413 236.52882919 15.67582488 237.27785832 16.8125 238 C18.01414262 238.84215161 19.21464568 239.68593135 20.4140625 240.53125 C21.01895508 240.94375 21.62384766 241.35625 22.24707031 241.78125 C43.92461725 256.85288152 43.92461725 256.85288152 47 267 C47.125 270.3125 47.125 270.3125 47 273 C42.44984754 274.37724293 38.92153138 273.4579367 34.49609375 272.1640625 C33.77696304 271.96525482 33.05783234 271.76644714 32.31690979 271.56161499 C30.02071314 270.9264819 27.72881111 270.27752293 25.4375 269.625 C7.18002371 264.42588995 -5.13561129 263.67356238 -23.5 269 C-26.08670021 269.73795619 -28.6747448 270.46995919 -31.26623535 271.19091797 C-32.86748946 271.63755716 -34.46592207 272.09447474 -36.06091309 272.56298828 C-39.79627471 273.61623642 -42.29397621 274.15718754 -46 273 C-46.02151626 271.50000964 -45.9894317 269.99924552 -45.9375 268.5 C-45.92589844 267.6646875 -45.91429688 266.829375 -45.90234375 265.96875 C-43.55919104 258.25967615 -35.82926109 252.91429113 -29.75 248.0625 C-29.01144775 247.45986328 -28.27289551 246.85722656 -27.51196289 246.23632812 C-24.19819104 243.53768758 -20.86404945 240.87831527 -17.44921875 238.30859375 C-15.95841797 237.16583984 -15.95841797 237.16583984 -14.4375 236 C-13.56996094 235.360625 -12.70242187 234.72125 -11.80859375 234.0625 C-9.70401271 232.06060521 -9.70401271 232.06060521 -9.66015625 228.875 C-9.82796662 226.06146224 -9.82796662 226.06146224 -11 224 C-11.22402327 221.66020141 -11.38322551 219.34612982 -11.5 217 C-11.55982056 215.85289551 -11.55982056 215.85289551 -11.62084961 214.68261719 C-12.5568464 195.45180596 -13.24130143 176.14003358 -12.96313477 156.88574219 C-12.86911006 148.8897503 -12.86911006 148.8897503 -14 141 C-14.66 140.34 -15.32 139.68 -16 139 C-40.83061933 149.2830823 -65.28289426 160.4451321 -89.77201843 171.51039124 C-93.19730665 173.05787272 -96.6232705 174.60385503 -100.04931641 176.1496582 C-101.78466845 176.93311619 -103.51968801 177.71731102 -105.25439453 178.50219727 C-132.01396711 190.60748112 -132.01396711 190.60748112 -139 190 C-140.20643566 186.38069302 -140.32268559 183.80768995 -140 180 C-137.20394006 175.01335296 -133.7142409 171.70343438 -129.375 168.125 C-128.4456665 167.34346558 -128.4456665 167.34346558 -127.49755859 166.54614258 C-123.14424225 162.90036679 -118.72179165 159.34340996 -114.265625 155.82421875 C-110.74787038 152.99181977 -107.36666976 150.00931375 -104 147 C-104.13277344 146.34773437 -104.26554687 145.69546875 -104.40234375 145.0234375 C-104.76842006 143.21176057 -105.13019779 141.39921117 -105.48828125 139.5859375 C-105.85713845 137.7219416 -106.23745813 135.86020097 -106.625 134 C-107.16675716 129.66594274 -107.07757893 125.36165997 -107 121 C-103.17742309 119.20114028 -100.2209225 118.63296326 -96 119 C-95.01 119.66 -94.02 120.32 -93 121 C-92.61588725 123.609621 -92.39706803 126.0058074 -92.3125 128.625 C-92.27833984 129.33140625 -92.24417969 130.0378125 -92.20898438 130.765625 C-92.12648692 132.50985688 -92.06156665 134.25490395 -92 136 C-87.95653631 136 -86.61912257 134.45569826 -83.4375 132 C-82.91027344 131.59571777 -82.38304687 131.19143555 -81.83984375 130.77490234 C-77.56620641 127.48363657 -73.34773461 124.12166504 -69.15625 120.7265625 C-67.13402836 119.10731981 -65.08139317 117.54212312 -63 116 C-63.495 114.845 -63.99 113.69 -64.5 112.5 C-66.06980103 107.82797312 -66.33562752 103.44468706 -66.375 98.5625 C-66.38853516 97.85222656 -66.40207031 97.14195313 -66.41601562 96.41015625 C-66.3984375 94.37890625 -66.3984375 94.37890625 -66 91 C-62.2794164 88.51961093 -60.40203429 88.53662797 -56 89 C-52.82167018 91.29387538 -52.07895968 92.55256182 -51.390625 96.453125 C-51.34421875 97.70609375 -51.2978125 98.9590625 -51.25 100.25 C-51.19328125 101.51328125 -51.1365625 102.7765625 -51.078125 104.078125 C-51.05234375 105.04234375 -51.0265625 106.0065625 -51 107 C-40.2407424 99.1188737 -29.50180557 91.22282137 -19 83 C-18.13769775 82.45891602 -17.27539551 81.91783203 -16.38696289 81.36035156 C-13.17842336 78.1875828 -13.21281891 75.43414419 -13.14453125 71.1484375 C-13.11195724 70.37553375 -13.07938324 69.60263 -13.04582214 68.80630493 C-12.94541861 66.32943576 -12.87749509 63.85302841 -12.8125 61.375 C-12.70400699 58.15324347 -12.58261791 54.93206958 -12.45703125 51.7109375 C-12.42696487 50.91080231 -12.3968985 50.11066711 -12.36592102 49.2862854 C-12.12927256 43.59807269 -11.68242804 37.95595718 -11.0625 32.296875 C-10.98550369 31.58139496 -10.90850739 30.86591492 -10.82917786 30.12875366 C-9.60979609 19.70682984 -7.72204276 7.72204276 0 0 Z " fill="#201D1D" transform="translate(158,26)"/>
<path d="M0 0 C0.66 0.33 1.32 0.66 2 1 C2 4.3 2 7.6 2 11 C-1.14388614 6.80815181 -1.43831791 5.93107644 -1 1 C-0.67 0.67 -0.34 0.34 0 0 Z " fill="#292727" transform="translate(147,223)"/>
<path d="M0 0 C2.0625 0.4375 2.0625 0.4375 4 1 C-0.75 5 -0.75 5 -3 5 C-1.125 1.125 -1.125 1.125 0 0 Z " fill="#3D393B" transform="translate(92,144)"/>
<path d="M0 0 C1 3 1 3 0.0625 5.1875 C-0.4634375 6.0846875 -0.4634375 6.0846875 -1 7 C-1.66 7 -2.32 7 -3 7 C-3 7.66 -3 8.32 -3 9 C-3.66 8.67 -4.32 8.34 -5 8 C-3.62845496 5.04590299 -2.01136276 2.55991624 0 0 Z " fill="#555455" transform="translate(55,171)"/>
</svg>
