<?xml version="1.0" encoding="UTF-8"?>
<svg version="1.1" xmlns="http://www.w3.org/2000/svg" width="683" height="551">
<path d="M0 0 C1.00740234 0.07927734 1.00740234 0.07927734 2.03515625 0.16015625 C6.3469773 1.92207081 7.94665437 8.02061819 9.69625854 12.09603882 C13.92661162 22.17603062 17.64043892 32.3399662 20.98535156 42.74658203 C21.82039853 45.33700224 22.67510527 47.92039224 23.53125 50.50390625 C29.09764098 67.50722972 30.38358344 83.59293987 30.89111328 101.38012695 C31.29509426 115.60964701 31.29509426 115.60964701 35.9375 128.9375 C36.35678154 130.20401398 36.74834117 131.48020112 37.10546875 132.765625 C39.16023415 139.662079 40.79261218 144.12371575 47.24609375 147.62890625 C48.13425781 148.06074219 49.02242188 148.49257812 49.9375 148.9375 C51.69564862 149.90062529 53.45373071 150.86388422 55.20898438 151.83227539 C57.76826356 153.2329714 60.35166254 154.58662974 62.9375 155.9375 C62.52177734 154.99390625 62.52177734 154.99390625 62.09765625 154.03125 C61.73542969 153.1753125 61.37320312 152.319375 61 151.4375 C60.64035156 150.6021875 60.28070313 149.766875 59.91015625 148.90625 C57.35353206 141.10289907 57.69276457 132.7522306 57.625 124.625 C57.59599609 123.44615234 57.56699219 122.26730469 57.53710938 121.05273438 C57.52873047 119.92544922 57.52035156 118.79816406 57.51171875 117.63671875 C57.48984497 116.10277466 57.48984497 116.10277466 57.4675293 114.5378418 C57.9375 111.9375 57.9375 111.9375 59.70019531 110.10180664 C62.10618798 108.84971377 63.47186749 108.57419036 66.16015625 108.609375 C66.94583984 108.61453125 67.73152344 108.6196875 68.54101562 108.625 C69.35248047 108.645625 70.16394531 108.66625 71 108.6875 C71.81533203 108.69265625 72.63066406 108.6978125 73.47070312 108.703125 C76.94175559 108.74875921 79.61422177 108.82974059 82.9375 109.9375 C87.5106768 119.08385359 84.20738422 138.31319089 81.9375 147.9375 C80.73299098 150.93408341 79.42548711 153.74514022 77.86328125 156.5703125 C76.69787946 159.55020062 76.80122629 160.95782945 77.9375 163.9375 C79.71768688 165.6561024 79.71768688 165.6561024 82.1875 167 C83.18136719 167.59296875 84.17523438 168.1859375 85.19921875 168.796875 C86.44459043 169.51167618 87.69076472 170.22507984 88.9375 170.9375 C90.52743348 171.85922024 92.11727021 172.78110738 93.70703125 173.703125 C105.04346335 180.24562285 116.47824288 186.61322134 127.9375 192.9375 C127.46699219 191.94234375 126.99648438 190.9471875 126.51171875 189.921875 C124.87770834 186.09093231 124.17457991 182.31549663 123.75 178.1875 C123.67322021 177.46739746 123.59644043 176.74729492 123.51733398 176.00537109 C122.95576262 170.20060132 122.63584744 164.39220013 122.5 158.5625 C122.46559814 157.74813477 122.43119629 156.93376953 122.39575195 156.09472656 C122.37890625 153.7890625 122.37890625 153.7890625 122.9375 149.9375 C126.1288609 146.76458628 129.41018604 146.55230673 133.8203125 146.52734375 C134.86832031 146.54474609 134.86832031 146.54474609 135.9375 146.5625 C136.63617188 146.55089844 137.33484375 146.53929687 138.0546875 146.52734375 C142.56377334 146.55286688 145.4540011 147.0442555 148.9375 149.9375 C149.56860352 153.07275391 149.56860352 153.07275391 149.56640625 156.9140625 C149.56881821 157.59874603 149.57123016 158.28342957 149.57371521 158.98886108 C149.57273602 160.43973571 149.55932444 161.89064734 149.53442383 163.34130859 C149.50042831 165.53486322 149.5136743 167.72431361 149.53320312 169.91796875 C149.52456207 177.63525316 149.01833422 184.1753608 144.9375 190.9375 C142.55930744 194.94607948 142.55930744 194.94607948 142.05444336 199.40454102 C143.2499131 202.8336255 144.72557299 203.47735958 147.87890625 205.21484375 C148.92481934 205.80322021 149.97073242 206.39159668 151.04833984 206.99780273 C152.1873877 207.61727783 153.32643555 208.23675293 154.5 208.875 C155.68803452 209.53731254 156.87503396 210.20148488 158.06103516 210.86743164 C160.49996424 212.23564595 162.94271034 213.59664585 165.38818359 214.953125 C170.57883022 217.84267308 175.69286228 220.86202197 180.8125 223.875 C188.33883166 228.28074916 195.89134513 232.63834855 203.47094727 236.95166016 C205.85357446 238.3081818 208.23135849 239.67264038 210.60522461 241.04443359 C216.1575725 244.24779473 221.72759641 247.3739781 227.42578125 250.3125 C243.33929816 258.71292965 243.33929816 258.71292965 246.11352539 265.83959961 C246.98652932 268.84034174 247.48341728 271.84836147 247.9375 274.9375 C248.29070312 276.16855469 248.64390625 277.39960938 249.0078125 278.66796875 C249.93536936 281.93000696 250.10188671 284.56757236 249.9375 287.9375 C243.60230899 287.21678305 237.59748636 285.61283273 231.4375 284 C217.80308129 280.51203808 204.07415407 277.50333609 190.3125 274.5625 C188.76381226 274.22860764 188.76381226 274.22860764 187.18383789 273.88796997 C184.19415378 273.24462962 181.20288536 272.60928207 178.2109375 271.9765625 C177.32324677 271.78518204 176.43555603 271.59380157 175.52096558 271.3966217 C165.19531478 268.90479396 165.19531478 268.90479396 154.9375 269.9375 C154.9375 268.9475 154.9375 267.9575 154.9375 266.9375 C150.9384789 266.12013251 146.93812238 265.30949048 142.9375 264.5 C141.81214844 264.26990234 140.68679688 264.03980469 139.52734375 263.80273438 C133.67268856 262.62153201 127.87733965 261.57079173 121.9375 260.9375 C121.6075 261.9275 121.2775 262.9175 120.9375 263.9375 C120.2775 263.9375 119.6175 263.9375 118.9375 263.9375 C118.6075 262.6175 118.2775 261.2975 117.9375 259.9375 C115.43895233 259.28557312 112.9388863 258.64086936 110.4375 258 C109.74140625 257.81759766 109.0453125 257.63519531 108.328125 257.44726562 C103.53912506 256.22784434 98.85212529 255.46327635 93.9375 254.9375 C93.9375 256.2575 93.9375 257.5775 93.9375 258.9375 C93.2775 258.9375 92.6175 258.9375 91.9375 258.9375 C91.6075 257.2875 91.2775 255.6375 90.9375 253.9375 C87.04286008 253.07635057 83.14677958 252.22208205 79.24926758 251.37402344 C77.92496569 251.08487314 76.60106448 250.79388115 75.27758789 250.50097656 C73.36973006 250.07908096 71.4602677 249.66446218 69.55078125 249.25 C68.40391846 248.99863281 67.25705566 248.74726563 66.07543945 248.48828125 C63.27505758 247.99674919 60.77006892 247.82614594 57.9375 247.9375 C57.6075 249.9175 57.2775 251.8975 56.9375 253.9375 C56.2775 253.9375 55.6175 253.9375 54.9375 253.9375 C54.6075 251.2975 54.2775 248.6575 53.9375 245.9375 C49.6475 245.2775 45.3575 244.6175 40.9375 243.9375 C32.14017265 264.01678989 31.64477558 282.80029386 31.51934814 304.34436035 C31.48718941 308.65444243 31.41544075 312.96382695 31.34570312 317.2734375 C31.26687823 322.28288772 31.19057672 327.29227411 31.13157654 332.30200195 C31.02291754 341.43573836 30.85064822 350.55986335 30.4765625 359.6875 C30.44095718 360.59040771 30.40535187 361.49331543 30.3686676 362.42358398 C29.26558861 386.72752622 23.24951544 409.87098748 15.4777832 432.8293457 C15.14738037 433.81765381 14.81697754 434.80596191 14.4765625 435.82421875 C14.17959473 436.69264404 13.88262695 437.56106934 13.57666016 438.45581055 C12.90874605 441.04914396 12.81987898 443.27132407 12.9375 445.9375 C13.50162598 446.20594727 14.06575195 446.47439453 14.64697266 446.75097656 C17.07268438 448.00752729 19.30480236 449.41882631 21.5859375 450.921875 C22.49762695 451.5202417 23.40931641 452.1186084 24.34863281 452.73510742 C25.81574707 453.70154175 25.81574707 453.70154175 27.3125 454.6875 C35.23952533 459.88342326 43.18729283 465.04239784 51.1875 470.125 C52.09016602 470.69847168 52.99283203 471.27194336 53.92285156 471.86279297 C59.1490954 475.17839739 64.38216425 478.48300564 69.62475586 481.77270508 C71.22787755 482.78531284 72.82526831 483.80706122 74.41625977 484.83862305 C77.80394917 487.02911242 81.11070484 489.08350061 84.78515625 490.7578125 C88.37315832 492.56230477 90.52909434 493.70751347 92.9375 496.9375 C94.32893328 503.50652235 93.67529416 510.31627036 92.9375 516.9375 C85.74173493 516.24262874 78.75772443 514.67884776 71.71048927 513.11496162 C69.47650567 512.61936119 67.24153745 512.12843824 65.00627136 511.63865662 C59.45291651 510.42089851 53.90118478 509.19581186 48.34960938 507.9699707 C43.65386448 506.93329139 38.95740743 505.89995906 34.25995445 504.87104607 C32.0810059 504.39241 29.90314815 503.90902636 27.72529602 503.4254303 C19.49568116 501.61345974 11.28092251 500.12931159 2.9375 498.9375 C1.6175 504.5475 0.2975 510.1575 -1.0625 515.9375 C-3.13952359 512.82196461 -3.81156855 510.54739929 -4.6875 506.9375 C-4.94789063 505.885625 -5.20828125 504.83375 -5.4765625 503.75 C-6.0625 500.9375 -6.0625 500.9375 -6.0625 497.9375 C-15.48661792 499.97073922 -24.9105169 502.00498943 -34.33414745 504.04048634 C-38.71118577 504.98589096 -43.08829522 505.93096349 -47.46557617 506.87524414 C-51.69976861 507.78867066 -55.93376249 508.70301249 -60.16762733 509.61795616 C-61.77285212 509.9646856 -63.37814497 510.31110007 -64.98351097 510.65717506 C-67.25376259 511.14664169 -69.52378839 511.63713842 -71.79370117 512.12817383 C-72.50456973 512.28165189 -73.21543829 512.43512995 -73.94784832 512.59325886 C-79.46433941 513.79092304 -84.95707043 515.07866711 -90.44184875 516.41459656 C-93.0625 516.9375 -93.0625 516.9375 -97.0625 516.9375 C-97.25256447 514.05938091 -97.39055204 511.19388509 -97.5 508.3125 C-97.58797852 507.10013672 -97.58797852 507.10013672 -97.67773438 505.86328125 C-97.77456209 502.46047879 -97.84099275 499.96377294 -95.73242188 497.18408203 C-93.92398676 495.59280153 -92.07736096 494.25641669 -90.0625 492.9375 C-89.47944092 492.53096191 -88.89638184 492.12442383 -88.2956543 491.70556641 C-86.45118493 490.44789209 -84.57692781 489.25148645 -82.6875 488.0625 C-81.96908936 487.60399658 -81.25067871 487.14549316 -80.51049805 486.6730957 C-78.91022093 485.65215137 -77.30850158 484.63346517 -75.70556641 483.61669922 C-72.85474373 481.80550779 -70.01080606 479.98385453 -67.16796875 478.16015625 C-58.7643283 472.77057142 -50.35747502 467.38634365 -41.921875 462.046875 C-40.94500732 461.4278833 -39.96813965 460.8088916 -38.96166992 460.17114258 C-37.14024348 459.017839 -35.31759247 457.86646584 -33.4934082 456.7175293 C-28.23385738 453.38656534 -23.12846296 449.90260302 -18.09155273 446.24243164 C-16.0625 444.9375 -16.0625 444.9375 -14.0625 444.9375 C-14.48660156 443.844375 -14.91070312 442.75125 -15.34765625 441.625 C-25.63218835 414.68396525 -32.42010626 387.75564448 -34.0625 358.9375 C-34.1052002 358.20810211 -34.14790039 357.47870422 -34.19189453 356.72720337 C-34.85318125 345.04646719 -35.12474068 333.3839712 -35.13072014 321.68633461 C-35.1328245 319.5071072 -35.13942601 317.32794004 -35.14759827 315.14872742 C-35.15027741 314.42019908 -35.15295656 313.69167074 -35.1557169 312.94106579 C-35.16129498 311.45700612 -35.16704525 309.97294709 -35.17296505 308.48888874 C-35.18585521 304.73754309 -35.18615423 300.9868979 -35.16210938 297.2355957 C-34.40389252 268.91559328 -34.40389252 268.91559328 -46.0625 243.9375 C-49.53903103 244.25710604 -52.78397142 244.70739185 -56.0625 245.9375 C-57.89743534 248.26749121 -58.30205349 250.00434917 -59.0625 252.9375 C-61.0625 250.9375 -61.0625 250.9375 -62.0625 247.9375 C-69.14093084 248.61514374 -76.03535552 249.75999171 -83 251.1875 C-84.55944336 251.47560547 -84.55944336 251.47560547 -86.15039062 251.76953125 C-87.63635742 252.07697266 -87.63635742 252.07697266 -89.15234375 252.390625 C-90.04816162 252.56754883 -90.94397949 252.74447266 -91.86694336 252.92675781 C-94.32150294 253.78027011 -94.32150294 253.78027011 -95.36938477 256.53417969 C-95.59811279 257.32727539 -95.82684082 258.12037109 -96.0625 258.9375 C-97.0525 257.4525 -97.0525 257.4525 -98.0625 255.9375 C-105.74589645 256.37611909 -113.89586475 256.95811231 -121.0625 259.9375 C-122.44499755 261.93229239 -122.44499755 261.93229239 -123.0625 263.9375 C-123.58505371 263.42147217 -124.10760742 262.90544434 -124.64599609 262.3737793 C-128.06092394 260.34407425 -129.89868426 261.0915684 -133.7265625 261.95703125 C-135.01304687 262.23740234 -136.29953125 262.51777344 -137.625 262.80664062 C-138.97930555 263.12049504 -140.33347086 263.43495522 -141.6875 263.75 C-143.0490934 264.05446472 -144.4110705 264.35721887 -145.7734375 264.65820312 C-148.26326071 265.20941399 -150.75126817 265.76893329 -153.23681641 266.33911133 C-156.0625 266.9375 -156.0625 266.9375 -158.0625 266.9375 C-158.3925 268.2575 -158.7225 269.5775 -159.0625 270.9375 C-159.7225 270.6075 -160.3825 270.2775 -161.0625 269.9375 C-167.82418109 269.6248091 -173.8607586 270.46164809 -180.45703125 271.87890625 C-181.43500671 272.08208969 -182.41298218 272.28527313 -183.42059326 272.49461365 C-186.5742089 273.1533049 -189.72464683 273.8258922 -192.875 274.5 C-195.04351104 274.95781195 -197.21204957 275.41549371 -199.38061523 275.87304688 C-217.40300167 279.6999701 -235.36837842 283.77568052 -253.0625 288.9375 C-253.37613749 279.02382805 -252.45486678 268.50054686 -247.0625 259.9375 C-240.88698513 254.26474771 -232.97395879 251.02464688 -225.43310547 247.54980469 C-220.18123904 245.03761246 -215.2377315 242.0564798 -210.25 239.0625 C-208.26463931 237.89438024 -206.27763138 236.72905608 -204.2890625 235.56640625 C-203.28004883 234.97617676 -202.27103516 234.38594727 -201.23144531 233.77783203 C-196.14012821 230.82110258 -191.0188063 227.91735656 -185.89993286 225.00872803 C-172.15612462 217.19786099 -158.57732231 209.13910721 -145.0625 200.9375 C-145.52636618 199.51357826 -145.99306902 198.09058045 -146.4609375 196.66796875 C-146.72052246 195.87543701 -146.98010742 195.08290527 -147.24755859 194.26635742 C-147.97026374 192.2010835 -148.78231637 190.24001991 -149.6875 188.25 C-152.86371581 180.59820736 -152.31525637 172.40301347 -152.375 164.25 C-152.38958252 163.58154053 -152.40416504 162.91308105 -152.41918945 162.22436523 C-152.46171077 160.27099758 -152.47540784 158.31706924 -152.48828125 156.36328125 C-152.50286377 155.20223877 -152.51744629 154.04119629 -152.5324707 152.8449707 C-152.0625 149.9375 -152.0625 149.9375 -150.28393555 148.06079102 C-146.82648961 146.31249903 -143.34584555 146.50468997 -139.5625 146.5625 C-138.42361328 146.54509766 -138.42361328 146.54509766 -137.26171875 146.52734375 C-134.17696628 146.54355086 -131.63353899 146.65352113 -128.84545898 148.04003906 C-126.22463454 150.82917333 -126.56069632 152.9183182 -126.56640625 156.6953125 C-126.56495102 157.35779999 -126.56349579 158.02028748 -126.56199646 158.70285034 C-126.56365573 160.10663237 -126.57522059 161.51043252 -126.59594727 162.9140625 C-126.62462363 165.0346678 -126.61661559 167.15272625 -126.60351562 169.2734375 C-126.61604892 176.66589972 -127.10342961 183.1115849 -130.0625 189.9375 C-130.3925 190.9275 -130.7225 191.9175 -131.0625 192.9375 C-119.01877329 186.52879511 -107.13436886 179.8972354 -95.4375 172.875 C-94.3657251 172.23232178 -93.2939502 171.58964355 -92.18969727 170.92749023 C-86.89706886 167.78050721 -86.89706886 167.78050721 -81.86962891 164.24047852 C-80.0625 162.9375 -80.0625 162.9375 -78.0625 162.9375 C-78.78566406 161.59558594 -78.78566406 161.59558594 -79.5234375 160.2265625 C-80.16211903 159.0055537 -80.80010207 157.78417936 -81.4375 156.5625 C-81.75460937 155.97855469 -82.07171875 155.39460937 -82.3984375 154.79296875 C-87.27927636 145.33634346 -87.42617273 135.46073191 -87.4375 125 C-87.46199219 123.78248047 -87.48648438 122.56496094 -87.51171875 121.31054688 C-87.51558594 120.14716797 -87.51945313 118.98378906 -87.5234375 117.78515625 C-87.53165527 116.73336182 -87.53987305 115.68156738 -87.54833984 114.59790039 C-87.0625 111.9375 -87.0625 111.9375 -85.29541016 110.09692383 C-82.92203489 108.86456442 -81.52700674 108.55174286 -78.875 108.5390625 C-78.09382812 108.53519531 -77.31265625 108.53132813 -76.5078125 108.52734375 C-75.29738281 108.54474609 -75.29738281 108.54474609 -74.0625 108.5625 C-73.25554687 108.55089844 -72.44859375 108.53929687 -71.6171875 108.52734375 C-68.30815146 108.54372512 -65.63602563 108.72308965 -62.5234375 109.88671875 C-60.06542294 113.33714026 -60.56374301 117.00730214 -60.6875 121.125 C-60.70256592 122.01469482 -60.71763184 122.90438965 -60.7331543 123.82104492 C-60.99882277 134.55999764 -61.46239953 145.0945453 -66.0625 154.9375 C-63.51553087 153.7184637 -60.9753325 152.48780447 -58.4375 151.25 C-57.72464844 150.91033203 -57.01179687 150.57066406 -56.27734375 150.22070312 C-50.57911273 147.42386496 -45.51181545 144.77727544 -42.5234375 138.921875 C-42.16507813 137.85453125 -41.80671875 136.7871875 -41.4375 135.6875 C-39.20633976 129.19972909 -39.20633976 129.19972909 -38.04418945 127.08105469 C-34.06431722 119.63066288 -34.49361256 111.9035768 -34.5 103.6875 C-34.46455793 83.03658895 -31.46696316 64.12821557 -25 44.5 C-24.57172409 43.17474808 -24.57172409 43.17474808 -24.13479614 41.82272339 C-20.69624814 31.1947131 -17.08872377 20.6951116 -12.5 10.5 C-12.1073999 9.62609619 -11.7147998 8.75219238 -11.31030273 7.85180664 C-8.73802974 2.49155758 -6.46640454 -0.68526445 0 0 Z " fill="#010101" transform="translate(343.0625,27.0625)"/>
</svg>
