<svg id="Layer_1" data-name="Layer 1" xmlns="http://www.w3.org/2000/svg" viewBox="0 0 48 48"><defs><style>.cls-1{fill:#000000;}</style></defs><title>System Redesign Icons 3</title><path class="cls-1" d="M24,3.16A20.84,20.84,0,1,0,44.84,24,20.84,20.84,0,0,0,24,3.16Zm.75,39.12c-11.4,0-19-8.14-19-18.41A18.31,18.31,0,0,1,37.44,11.58a12,12,0,0,1,.93,1.12l2.31,3.95L26.84,23.1a1.61,1.61,0,0,0,0,.22,2.56,2.56,0,0,1-1.26,2.22,2.6,2.6,0,0,1-2,.12l-.35-.16a2.39,2.39,0,0,1-1-1.06,2.77,2.77,0,0,1-.15-1.94,2.39,2.39,0,0,1,3.54-1.35l.35.26L29.1,19.2A6.83,6.83,0,0,0,24,16.89c-6.86.6-6.66,6.76-6.66,6.76A6.76,6.76,0,0,0,24,30.39c4.16,0,7.77-3.69,7.77-3.69-1.36,2.81-3.58,5.2-7.77,5.2a8.16,8.16,0,0,1-8.24-8.21A8.25,8.25,0,0,1,24,15.39a7.94,7.94,0,0,1,6.26,3l3.1-2.18A12,12,0,0,0,24,11.69c-12.06.54-12,12-12,12-.34,2.36,2,11.91,12,11.91s13.56-11,13.56-11c.3,4.76-5.25,12.69-13.56,12.69a13.75,13.75,0,0,1-13.56-13.6,13.47,13.47,0,0,1,24.14-8.33h0c.93-.66,1.81-1.28,2.58-1.81C25.76,1.34,13.89,10.6,13.89,10.6S7.17,15.44,7.17,24A16.13,16.13,0,0,0,13.1,36.77a17.19,17.19,0,0,0,11.65,4,16.75,16.75,0,0,0,10.51-4.47,17.74,17.74,0,0,0,7.08-13C44.46,28.4,36.14,42.28,24.75,42.28Z"/></svg>