<svg id="Layer_1" data-name="Layer 1" xmlns="http://www.w3.org/2000/svg" viewBox="0 0 48 48"><defs><style>.cls-1{fill:#000000;}</style></defs><title>System Redesign Icons 3</title><path class="cls-1" d="M44,25.62H40.12v-3.1H38.89v5.61H29.26v3.18H22.07L12.3,22.06l7-10.8L14.58,8.12,0,30.64,4.63,34l7-10.92,8.71,8.25H6.89V39h2V36.51L9.9,35.16h21v.52l-1.2,2.12.82.65,1.29-2.64h7.48c1.11.15,1.34,1.69,1.34,1.69h3.27L48,34.41V29.05Zm-5.74,5.86h-8V29h8Zm7.47-.79h-4.3V27.4h2.15l2.15,1.65Z"/><path class="cls-1" d="M11.52,35.86a2,2,0,1,0,2,2A2,2,0,0,0,11.52,35.86Zm0,3.24a1.23,1.23,0,1,1,1.23-1.23A1.23,1.23,0,0,1,11.52,39.1Z"/><path class="cls-1" d="M16.16,35.86a2,2,0,1,0,2,2A2,2,0,0,0,16.16,35.86Zm0,3.24a1.23,1.23,0,1,1,1.23-1.23A1.23,1.23,0,0,1,16.16,39.1Z"/><path class="cls-1" d="M20.83,35.86a2,2,0,1,0,2,2A2,2,0,0,0,20.83,35.86Zm0,3.24a1.23,1.23,0,1,1,1.23-1.23A1.23,1.23,0,0,1,20.83,39.1Z"/><path class="cls-1" d="M33.54,35.86a2,2,0,1,0,2,2A2,2,0,0,0,33.54,35.86Zm0,3.24a1.23,1.23,0,1,1,1.23-1.23A1.23,1.23,0,0,1,33.54,39.1Z"/><path class="cls-1" d="M38.26,35.86a2,2,0,1,0,2,2A2,2,0,0,0,38.26,35.86Zm0,3.24a1.23,1.23,0,1,1,1.23-1.23A1.23,1.23,0,0,1,38.26,39.1Z"/></svg>