<?xml version="1.0" encoding="UTF-8"?>
<svg version="1.1" xmlns="http://www.w3.org/2000/svg" width="712" height="572">
<path d="M0 0 C106.92 0 213.84 0 324 0 C324 53.79 324 107.58 324 163 C217.08 163 110.16 163 0 163 C0 109.21 0 55.42 0 0 Z M30 30 C30 39.57 30 49.14 30 59 C39.57 59 49.14 59 59 59 C59 49.43 59 39.86 59 30 C49.43 30 39.86 30 30 30 Z M89 30 C89 39.57 89 49.14 89 59 C98.57 59 108.14 59 118 59 C118 49.43 118 39.86 118 30 C108.43 30 98.86 30 89 30 Z M148 30 C148 39.57 148 49.14 148 59 C157.57 59 167.14 59 177 59 C177 49.43 177 39.86 177 30 C167.43 30 157.86 30 148 30 Z M207 30 C207 39.57 207 49.14 207 59 C216.57 59 226.14 59 236 59 C236 49.43 236 39.86 236 30 C226.43 30 216.86 30 207 30 Z M265 30 C265 39.57 265 49.14 265 59 C274.9 59 284.8 59 295 59 C295 49.43 295 39.86 295 30 C285.1 30 275.2 30 265 30 Z M30 89 C30 98.57 30 108.14 30 118 C39.57 118 49.14 118 59 118 C59 108.43 59 98.86 59 89 C49.43 89 39.86 89 30 89 Z M89 89 C89 98.57 89 108.14 89 118 C98.57 118 108.14 118 118 118 C118 108.43 118 98.86 118 89 C108.43 89 98.86 89 89 89 Z M148 89 C148 98.57 148 108.14 148 118 C157.57 118 167.14 118 177 118 C177 108.43 177 98.86 177 89 C167.43 89 157.86 89 148 89 Z M207 89 C207 98.57 207 108.14 207 118 C216.57 118 226.14 118 236 118 C236 108.43 236 98.86 236 89 C226.43 89 216.86 89 207 89 Z M265 89 C265 98.57 265 108.14 265 118 C274.9 118 284.8 118 295 118 C295 108.43 295 98.86 295 89 C285.1 89 275.2 89 265 89 Z " fill="#030303" transform="translate(107,304)"/>
<path d="M0 0 C0 14.85 0 29.7 0 45 C4.95 45 9.9 45 15 45 C15 74.37 15 103.74 15 134 C10.05 134 5.1 134 0 134 C0 216.83 0 299.66 0 385 C-29.04 385 -58.08 385 -88 385 C-88 331.21 -88 277.42 -88 222 C-78.43 222 -68.86 222 -59 222 C-59 202.86 -59 183.72 -59 164 C-78.47 164 -97.94 164 -118 164 C-118.33 154.43 -118.66 144.86 -119 135 C-123.29 134.67 -127.58 134.34 -132 134 C-132 104.63 -132 75.26 -132 45 C-127.38 45 -122.76 45 -118 45 C-118 30.48 -118 15.96 -118 1 C-113.05 1 -108.1 1 -103 1 C-100.65409549 10.38361804 -102 20.32758791 -102 30 C-73.62 30 -45.24 30 -16 30 C-15.67 20.43 -15.34 10.86 -15 1 C-1 0 -1 0 0 0 Z M-102 75 C-102.63301313 80.06410506 -103.13740294 84.48921084 -103.125 89.5 C-103.12757813 90.5415625 -103.13015625 91.583125 -103.1328125 92.65625 C-102.98199456 96.45331339 -102.47133911 100.22928708 -102 104 C-92.76 104 -83.52 104 -74 104 C-74 94.43 -74 84.86 -74 75 C-83.24 75 -92.48 75 -102 75 Z M-44 75 C-44 84.57 -44 94.14 -44 104 C-34.43 104 -24.86 104 -15 104 C-15 94.43 -15 84.86 -15 75 C-24.57 75 -34.14 75 -44 75 Z " fill="#020202" transform="translate(534,82)"/>
<path d="M0 0 C14.52 0 29.04 0 44 0 C44 4.95 44 9.9 44 15 C58.52 15 73.04 15 88 15 C88 29.52 88 44.04 88 59 C73.48 59 58.96 59 44 59 C44 54.05 44 49.1 44 44 C34.43 44 24.86 44 15 44 C15 63.47 15 82.94 15 103 C116.97 103 218.94 103 324 103 C324 112.9 324 122.8 324 133 C197.61 133 71.22 133 -59 133 C-59 123.1 -59 113.2 -59 103 C-39.53 103 -20.06 103 0 103 C0 69.01 0 35.02 0 0 Z " fill="#030303" transform="translate(137,157)"/>
</svg>
